<svg width="24" height="24" viewBox="0 0 24 24" fill="none" xmlns="http://www.w3.org/2000/svg">
<g clip-path="url(#clip0)">
<path d="M19.7334 12.1778C19.7334 11.52 19.6807 11.04 19.5668 10.5422H12.1578V13.5111H16.5067C16.4191 14.2489 15.9456 15.36 14.8934 16.1066L14.8787 16.206L17.2212 18.0458L17.3835 18.0622C18.8741 16.6666 19.7334 14.6133 19.7334 12.1778Z" fill="#4285F4"/>
<path d="M12.1573 20C14.2879 20 16.0765 19.2888 17.383 18.0622L14.8929 16.1066C14.2265 16.5777 13.3322 16.9066 12.1573 16.9066C10.0705 16.9066 8.29943 15.5111 7.66808 13.5822L7.57554 13.5902L5.1397 15.5013L5.10785 15.5911C6.40549 18.2044 9.07096 20 12.1573 20Z" fill="#34A853"/>
<path d="M7.6686 13.5822C7.50201 13.0845 7.4056 12.5511 7.4056 12C7.4056 11.4489 7.50201 10.9155 7.65984 10.4178L7.65542 10.3118L5.18906 8.36995L5.10837 8.40886C4.57354 9.49332 4.26666 10.7111 4.26666 12C4.26666 13.2889 4.57354 14.5066 5.10837 15.5911L7.6686 13.5822Z" fill="#FBBC05"/>
<path d="M12.1573 7.09331C13.6391 7.09331 14.6386 7.74219 15.2086 8.28445L17.4356 6.08C16.0679 4.79111 14.2879 4 12.1573 4C9.07097 4 6.4055 5.79554 5.10785 8.40885L7.65932 10.4178C8.29944 8.48888 10.0706 7.09331 12.1573 7.09331Z" fill="#EB4335"/>
</g>
<defs>
<clipPath id="clip0">
<rect width="24" height="24" fill="white"/>
</clipPath>
</defs>
</svg>
