<svg width="98" height="32" viewBox="0 0 98 32" fill="none" xmlns="http://www.w3.org/2000/svg">
<path d="M13.14 25.455C9.40667 25.455 6.33833 24.23 3.935 21.78C1.53167 19.3533 0.33 16.3433 0.33 12.75C0.33 9.15667 1.53167 6.14667 3.935 3.72C6.33833 1.27 9.40667 0.0449979 13.14 0.0449979C15.3567 0.0449979 17.41 0.581665 19.3 1.655C21.19 2.72833 22.66 4.175 23.71 5.995L20.875 7.64C20.175 6.28667 19.125 5.21333 17.725 4.42C16.3483 3.60333 14.82 3.195 13.14 3.195C10.2933 3.195 7.98333 4.105 6.21 5.925C4.43667 7.72167 3.55 9.99667 3.55 12.75C3.55 15.48 4.43667 17.7433 6.21 19.54C7.98333 21.36 10.2933 22.27 13.14 22.27C14.82 22.27 16.3483 21.8733 17.725 21.08C19.125 20.2633 20.175 19.19 20.875 17.86L23.71 19.47C22.6833 21.29 21.225 22.7483 19.335 23.845C17.4683 24.9183 15.4033 25.455 13.14 25.455ZM30.229 7.5V10.44C31.2324 8.27 33.0524 7.185 35.689 7.185V10.37C34.1957 10.3 32.9124 10.6967 31.839 11.56C30.7657 12.4233 30.229 13.8117 30.229 15.725V25H27.184V7.5H30.229ZM54.5114 17.65H39.8464C40.1497 19.19 40.8614 20.4033 41.9814 21.29C43.1014 22.1533 44.5014 22.585 46.1814 22.585C48.4914 22.585 50.1714 21.7333 51.2214 20.03L53.8114 21.5C52.0847 24.1367 49.518 25.455 46.1114 25.455C43.358 25.455 41.0947 24.5917 39.3214 22.865C37.5947 21.0917 36.7314 18.8867 36.7314 16.25C36.7314 13.59 37.583 11.3967 39.2864 9.67C40.9897 7.92 43.1947 7.045 45.9014 7.045C48.468 7.045 50.5564 7.955 52.1664 9.775C53.7997 11.5483 54.6164 13.7183 54.6164 16.285C54.6164 16.7283 54.5814 17.1833 54.5114 17.65ZM45.9014 9.915C44.2914 9.915 42.938 10.37 41.8414 11.28C40.768 12.19 40.103 13.4267 39.8464 14.99H51.5364C51.2797 13.38 50.638 12.1317 49.6114 11.245C48.5847 10.3583 47.348 9.915 45.9014 9.915ZM67.7766 7.045C70.2266 7.045 72.315 7.94333 74.0416 9.74C75.7683 11.5367 76.6316 13.7067 76.6316 16.25C76.6316 18.8167 75.7683 20.9983 74.0416 22.795C72.3383 24.5683 70.25 25.455 67.7766 25.455C64.8833 25.455 62.6783 24.3 61.1616 21.99V32H58.1166V7.5H61.1616V10.51C62.6783 8.2 64.8833 7.045 67.7766 7.045ZM67.3916 22.515C69.1416 22.515 70.6116 21.92 71.8016 20.73C72.9916 19.4933 73.5866 18 73.5866 16.25C73.5866 14.4767 72.9916 12.995 71.8016 11.805C70.6116 10.5917 69.1416 9.985 67.3916 9.985C65.6183 9.985 64.1366 10.5917 62.9466 11.805C61.7566 12.995 61.1616 14.4767 61.1616 16.25C61.1616 18 61.7566 19.4933 62.9466 20.73C64.1366 21.92 65.6183 22.515 67.3916 22.515ZM89.4091 7.5V10.44H84.7541V19.925C84.7541 20.7883 84.9174 21.4067 85.2441 21.78C85.5941 22.13 86.1191 22.3167 86.8191 22.34C87.5191 22.34 88.3824 22.3167 89.4091 22.27V25C86.7258 25.35 84.7658 25.1283 83.5291 24.335C82.3158 23.5417 81.7091 22.0717 81.7091 19.925V10.44H78.2441V7.5H81.7091V3.51L84.7541 2.6V7.5H89.4091Z" fill="white"/>
<path d="M95.0416 25.385C94.4116 25.385 93.875 25.1633 93.4316 24.72C92.9883 24.2767 92.7666 23.74 92.7666 23.11C92.7666 22.48 92.9883 21.9433 93.4316 21.5C93.875 21.0567 94.4116 20.835 95.0416 20.835C95.695 20.835 96.2316 21.0567 96.6516 21.5C97.095 21.9433 97.3166 22.48 97.3166 23.11C97.3166 23.74 97.095 24.2767 96.6516 24.72C96.2316 25.1633 95.695 25.385 95.0416 25.385Z" fill="#D93308"/>
</svg>
